<?xml version="1.0" encoding="UTF-8" standalone="no"?>
<!-- Created with Inkscape (http://www.inkscape.org/) -->

<svg
   width="450mm"
   height="150mm"
   viewBox="0 0 450 150"
   version="1.1"
   id="svg5"
   inkscape:version="1.1.1 (3bf5ae0d25, 2021-09-20)"
   sodipodi:docname="logoBW.svg"
   xmlns:inkscape="http://www.inkscape.org/namespaces/inkscape"
   xmlns:sodipodi="http://sodipodi.sourceforge.net/DTD/sodipodi-0.dtd"
   xmlns="http://www.w3.org/2000/svg"
   xmlns:svg="http://www.w3.org/2000/svg">
  <sodipodi:namedview
     id="namedview7"
     pagecolor="#ffffff"
     bordercolor="#666666"
     borderopacity="1.0"
     inkscape:pageshadow="2"
     inkscape:pageopacity="0.0"
     inkscape:pagecheckerboard="0"
     inkscape:document-units="mm"
     showgrid="false"
     inkscape:zoom="0.5"
     inkscape:cx="703"
     inkscape:cy="325"
     inkscape:window-width="1920"
     inkscape:window-height="1009"
     inkscape:window-x="-8"
     inkscape:window-y="-8"
     inkscape:window-maximized="1"
     inkscape:current-layer="layer1" />
  <defs
     id="defs2" />
  <g
     inkscape:label="Layer 1"
     inkscape:groupmode="layer"
     id="layer1">
    <g
       id="g279"
       transform="matrix(0.35277778,0,0,0.35277778,8.1243558,16.609306)">
      <g
         transform="matrix(0.1,0,0,-0.1,0,348)"
         fill="#659ad1"
         stroke="none"
         id="g143">
        <path
           d="M 30,2563 61,866 c 1486,854 10791.421,864.8369 1486,854 l 9305.421,10.8369 1472.206,862.0367 L 10865,3469 H 1495 Z"
           id="path9"
           sodipodi:nodetypes="cccccccc"
           style="fill:#999999" />
        <path
           d="m 4578,1573 -18,-4 v -16 -15 l 23,6 22,6 h 8 7 v 15 15 l -12,-1 -13,-1 z"
           id="path21" />
        <path
           d="m 4502,1534 -22,-15 v -10 -10 l -15,-15 -15,-15 v -15 -14 h 15 15 l 5,23 6,23 29,19 30,20 v 13 12 h -13 -13 z"
           id="path23" />
        <path
           d="m 9490,1520 v -30 h 15 15 v 30 30 h -15 -15 z"
           id="path25" />
        <path
           d="m 9790,1490 v -20 h 15 15 v 20 20 h -15 -15 z"
           id="path27" />
        <path
           d="m 1973,1480 -5,-20 h -9 -9 v -15 -15 h 15 15 v 14 14 l 15,6 15,5 v 16 15 h -16 -16 z"
           id="path29" />
        <path
           d="m 9500,1450 v -20 h 15 15 v 20 20 h -15 -15 z"
           id="path31" />
        <path
           d="m 9800,1448 1,-13 23,-45 23,-45 16,-3 17,-3 v 11 12 l -19,26 -18,27 -7,23 -7,22 h -15 -14 z"
           id="path33" />
        <path
           d="m 7380,1415 v -35 h 15 15 v 35 35 h -15 -15 z"
           id="path35" />
        <path
           d="m 4440,1395 v -35 h 15 15 v 35 35 h -15 -15 z"
           id="path37" />
        <path
           d="m 4872,1418 -12,-12 v -13 -13 h -14 -14 l -29,-32 -28,-33 -52,-27 -51,-28 h -16 -16 v -15 -15 h 18 17 l 53,25 52,24 v 11 10 h 13 13 l 27,28 27,28 v 10 9 l 22,10 23,10 3,18 3,17 h -13 -14 z"
           id="path39" />
        <path
           d="m 1897,1392 -27,-28 v -12 -12 h 13 13 l 27,28 27,28 v 12 12 h -13 -13 z"
           id="path41" />
        <path
           d="m 9515,1388 7,-33 36,-75 37,-75 18,-3 17,-3 v 9 10 l -34,55 -33,56 -13,46 -13,45 h -14 -15 z"
           id="path43" />
        <path
           d="m 7080,1370 v -40 h 15 15 v 40 40 h -15 -15 z"
           id="path45" />
        <path
           d="m 7390,1360 v -9 l 12,-26 11,-25 h 14 13 v 10 9 l -12,26 -11,25 h -14 -13 z"
           id="path47" />
        <path
           d="m 4450,1340 v -11 l 15,-29 16,-30 h 10 10 l 15,-15 15,-15 h 15 14 v 15 15 l -24,6 -24,6 -18,34 -19,34 h -12 -13 z"
           id="path49" />
        <path
           d="m 1828,1332 -3,-7 -71,-33 -71,-32 h -16 -17 v -16 -16 l 31,6 31,6 59,26 59,27 v 8 9 h 15 15 v 15 15 h -14 -14 z"
           id="path51" />
        <path
           d="m 9890,1314 v -16 l 20,-5 20,-5 v -8 -8 l 47,-16 47,-16 h 8 8 v 13 13 l -54,18 -55,19 -5,13 -5,14 h -16 -15 z"
           id="path53" />
        <path
           d="m 4140,1300 v -20 h 15 15 v 20 20 h -15 -15 z"
           id="path55" />
        <path
           d="m 7090,1300 v -19 l 21,-57 21,-56 17,-17 18,-18 6,-17 7,-18 20,-5 20,-5 v -9 -9 h 15 15 v -9 -9 l 38,-15 38,-15 37,-7 37,-7 v 13 14 l -75,24 -75,23 v 9 9 h -10 -9 l -24,24 -25,25 -31,62 -31,62 v 24 23 h -15 -15 z"
           id="path57" />
        <path
           d="m 10473,1303 -23,-4 v -15 -14 h 13 12 l 23,6 22,6 v 14 14 l -12,-1 -13,-2 z"
           id="path59" />
        <path
           d="m 7452,1273 3,-16 35,-13 35,-12 28,-1 27,-1 v 15 15 h -27 -28 l -29,15 -28,15 h -10 -9 z"
           id="path61" />
        <path
           d="m 7793,1283 -23,-4 v -16 -15 l 31,6 32,6 h 8 9 v 15 15 l -17,-1 -18,-2 z"
           id="path63" />
        <path
           d="m 10350,1265 v -15 h 25 25 v 15 15 h -25 -25 z"
           id="path65" />
        <path
           d="m 4150,1259 v -10 l 21,-50 21,-49 h 9 9 v -12 -12 l 27,-28 27,-28 h 13 13 v -9 -9 l 49,-21 50,-21 h 10 11 v 13 12 l -55,24 -55,24 -39,38 -38,39 -24,55 -24,55 h -12 -13 z"
           id="path67" />
        <path
           d="m 7720,1255 v -15 h 20 20 v 15 15 h -20 -20 z"
           id="path69" />
        <path
           d="m 10290,1255 v -15 h 25 25 v 15 15 h -25 -25 z"
           id="path71" />
        <path
           d="m 4570,1245 v -15 h 30 30 v 15 15 h -30 -30 z"
           id="path73" />
        <path
           d="m 7620,1245 v -15 h 40 40 v 15 15 h -40 -40 z"
           id="path75" />
        <path
           d="m 10050,1245 v -15 h 35 35 v 15 15 h -35 -35 z"
           id="path77" />
        <path
           d="m 10170,1245 v -15 h 40 40 v 15 15 h -40 -40 z"
           id="path79" />
        <path
           d="m 1460,1235 v -15 h 30 30 v 15 15 h -30 -30 z"
           id="path81" />
        <path
           d="m 1580,1235 v -15 h 30 30 v 15 15 h -30 -30 z"
           id="path83" />
        <path
           d="m 2394,1196 -6,-25 -14,-5 -14,-5 v -15 -14 l -15,-6 -15,-5 v -16 -15 h 15 16 l 6,18 6,17 14,8 13,8 v 10 10 l 15,15 15,15 v 15 14 h -15 -15 z"
           id="path85" />
        <path
           d="m 9632,1174 3,-17 17,-11 17,-10 8,7 7,8 -10,17 -11,17 -17,3 -18,4 z"
           id="path87" />
        <path
           d="m 4890,1165 v -15 h 15 15 v -40 -40 h 15 15 v 55 55 h -30 -30 z"
           id="path89" />
        <path
           d="m 4828,1122 -13,-17 -71,-33 -71,-32 h -11 -12 v -16 -16 l 33,7 32,7 50,26 50,25 5,6 5,6 20,11 20,11 3,17 3,16 h -15 -15 z"
           id="path91" />
        <path
           d="m 9700,1115 v -15 h 11 10 l 15,-15 15,-15 h 15 14 v 15 15 l -25,6 -25,6 v 9 9 h -15 -15 z"
           id="path93" />
        <path
           d="m 770,1067 v -13 l 43,-42 43,-42 h 12 12 v 12 12 l -42,43 -42,43 h -13 -13 z"
           id="path95" />
        <path
           d="m 2257,1032 -47,-48 v -12 -12 h 13 13 l 47,48 47,48 v 12 12 h -13 -13 z"
           id="path97" />
        <path
           d="m 9790,1067 v -15 l 28,-10 27,-10 34,-11 34,-11 h 13 14 v 13 12 l -63,20 -62,19 -12,4 -13,3 z"
           id="path99" />
        <path
           d="m 10483,1073 -23,-4 v -16 -15 l 31,6 32,6 h 8 9 v 15 15 l -17,-1 -18,-2 z"
           id="path101" />
        <path
           d="m 7803,1053 -23,-4 v -16 -15 l 31,6 32,6 h 8 9 v 15 15 l -17,-1 -18,-2 z"
           id="path103" />
        <path
           d="m 10410,1045 v -15 h 20 20 v 15 15 h -20 -20 z"
           id="path105" />
        <path
           d="m 10350,1035 v -15 h 25 25 v 15 15 h -25 -25 z"
           id="path107" />
        <path
           d="m 7720,1025 v -15 h 20 20 v 15 15 h -20 -20 z"
           id="path109" />
        <path
           d="m 10290,1025 v -15 h 25 25 v 15 15 h -25 -25 z"
           id="path111" />
        <path
           d="m 4420,1015 v -15 h 25 25 v 15 15 h -25 -25 z"
           id="path113" />
        <path
           d="m 4590,1015 v -15 h 25 25 v 15 15 h -25 -25 z"
           id="path115" />
        <path
           d="m 7410,1015 v -15 h 30 30 v 15 15 h -30 -30 z"
           id="path117" />
        <path
           d="m 7640,1015 v -15 h 30 30 v 15 15 h -30 -30 z"
           id="path119" />
        <path
           d="m 9960,1015 v -15 h 25 25 v 15 15 h -25 -25 z"
           id="path121" />
        <path
           d="m 10200,1015 v -15 h 35 35 v 15 15 h -35 -35 z"
           id="path123" />
        <path
           d="m 900,944 v -16 l 19,-5 20,-5 5,-14 5,-14 h 16 15 v -9 -9 l 88,-45 87,-45 83,-26 83,-26 h 15 14 v 13 13 l -70,18 -69,17 -113,57 -113,56 -8,13 -8,13 h -13 -14 l -6,15 -5,15 h -16 -15 z"
           id="path127" />
        <path
           d="m 2164,945 -6,-15 h -14 -15 l -5,-15 -6,-15 h -13 -14 l -13,-13 -13,-12 -92,-43 -92,-42 -66,-17 -65,-18 v -12 -13 h 14 15 l 83,26 83,26 60,30 60,31 5,7 5,7 23,7 22,7 v 10 9 h 15 14 l 8,13 8,14 18,6 17,6 v 16 15 h -15 -16 z"
           id="path129" />
        <path
           d="m 1360,735 v -15 h 25 25 v 15 15 h -25 -25 z"
           id="path135" />
        <path
           d="m 1690,735 v -15 h 25 25 v 15 15 h -25 -25 z"
           id="path137" />
        <path
           d="m 1430,725 v -15 h 35 35 v 15 15 h -35 -35 z"
           id="path139" />
        <path
           d="m 1590,725 v -15 h 40 40 v 15 15 h -40 -40 z"
           id="path141" />
      </g>
      <g
         transform="matrix(0.1,0,0,-0.1,0,348)"
         fill="#004482"
         stroke="none"
         id="g149">
        <path
           d="M 1525,1725 61,866 C 1483,20 61,866 1488,20 l 9392,5 c 1421,845 64,40 1421,845 l -1571,865 c -9183,-15 0,-15 -9205,-10 z"
           id="path145"
           sodipodi:nodetypes="ccccccc"
           style="fill:#333333" />
      </g>
      <g
         transform="matrix(0.1,0,0,-0.1,0,348)"
         fill="#fefefe"
         stroke="none"
         id="g171">
        <path
           d="m 1406,2749 -59,-9 -71,-19 -71,-20 -70,-31 -70,-31 -80,-54 -80,-53 -73,-74 -74,-73 -54,-82 -55,-82 -34,-79 -35,-80 -22,-88 -22,-89 1,-150 v -150 l 25,-95 26,-95 35,-78 36,-77 30,-50 11,-28 30,-42 32,-29 67,-69 68,-69 33,-33 78,-46 29,-14 21,-19 12,-12 20,-10 20,-9 79,-25 16,-5 15,-5 30,-10 15,-5 16,-5 c 34,-9 0,0 34,-9 l 20,-3 20,-3 30,-5 30,-6 h 135 135 l 30,6 30,5 20,4 20,3 15,6 15,7 25,4 25,5 3,2 2,2 8,2 7,2 40,18 40,18 25,18 20,10 20,9 25,6 25,16 20,18 39,30 31,21 15,5 43.0922,35.12588 L 2269,1021 l 69,69 6,15 9.45,12.4111 21.0092,26.3295 L 2385,1156 l 32,57 2,22 -420,244 -29,-39 -33,-35 -25,-27 -26,-28 -38,-30 -28,-17 -42,-19 -42,-19 c -51,-18 0,0 -51,-18 l -25,-4 -25,-4 h -85 -85 l -25,4 -25,4 c -51,18 0,0 -51,18 l -42,19 -42,19 c -31,17 0,0 -31,17 -35,30 0,0 -35,30 l -27,28 -27,28 c -30,33 0,0 -30,33 -21,31 0,0 -21,31 -6,20 0,0 -6,20 l -22,53 -22,52 -11,73 -12,72 12,76 12,76 32,67 31,66 71,71 71,71 65,31 65,30 59,11 60,11 h 46 46 l 59,-15 60,-16 54,-26 53,-26 69,-64 68,-65 c 46,-27 0,0 46,-27 l 202,115 203,116 5,8 5,7 -49,69 -48,69 -69,68 -68,68 -81,54 -82,55 -55,24 -56,25 -64,21 -63,21 -90,14 -90,15 -75,-1 -75,-1 z"
           id="path153"
           sodipodi:nodetypes="cccccccccccccccccccccccccccccccccccccccccccccccccccccccccccccccccccccccccccccccccccccccccccccccccccccccccccccccccccccccccccccccccccccccccccccccccccc" />
        <path
           d="m 8250,2605 v -115 h 170 170 v -610 -610 h -190 -190 v -115 -115 h 515 515 v 115 115 h -168 -169 l -6,347 -7,346 v 379 378 h -320 -320 z"
           id="path155" />
        <path
           d="m 7235,2601 -140,-37 -3,-157 -3,-157 h -159 -160 v -115 -115 h 160 160 v -293 -293 l 10,-79 11,-80 2,-15 3,-15 12,-22 13,-23 9,-22 20,-22 15,-26 32,-30 32,-30 78,-26 78,-27 125,-1 125,-1 60,7 60,7 34,10 34,10 c 17,11 0,0 17,11 v 100 121 l -22,-6 -23,-7 -15,-4 -15,-3 -40,-7 -40,-6 -85,-3 -85,-3 -25,11 -25,10 -8,1 -8,1 -29,34 -30,34 -1,6 -1,6 -4,20 -4,20 -5,318 -5,317 h 235 235 v 115 115 h -235 -235 v 195 195 l -7,-1 h -8 z"
           id="path157"
           sodipodi:nodetypes="ccccccccccccccccccccccccccccccccccccccccccccccccccccccccccccccccc" />
        <path
           d="m 4470,2264 -85,-16 -70,-22 -70,-22 -3,-118 -3,-118 13,5 13,6 91,30 90,30 90,12 89,12 65,-6 65,-6 35,-15 35,-14 27,-29 26,-28 11,-40 11,-40 v -46 -46 l -172,-6 -173,-6 -60,-16 -60,-17 -60,-26 -60,-26 -43,-41 -44,-40 -9,-3 -9,-4 c -16,-28 0,0 -16,-28 l -17,-52 -17,-53 -9,-42 -9,-43 13,-73 13,-74 11,-20 10,-20 12,-13 9,-20 v -9 l 41,-49 40,-41 20,-6 19,-6 13,-10 21,-11 21,-12 15,-4 15,-5 c 77.8033,-3.8314 147.3052,-7.9821 220,0 l 20,5 20,5 35,14 35,13 c 15,8 0,0 15,8 6,5 0,0 6,5 20,6 0,0 20,6 l 13,12 36,25 37,25 25,22 26,23 9,-6 10,-6 -2,-52 -2,-51 1,-12 1,-13 h 126 125 l -3,473 -3,472 -24,59 -23,59 -36,39 -35,39 -44,26 -44,25 -62,20 -62,20 -150,4 -150,3 z m 422,-766 3,-83 -50,-52 -50,-53 -25,-21 -52,-23 -53,-24 -45,3 -45,2 -25,7 -25,6 -34,20 -17,32 -17,32 v 41 40 l 6,22 6,22 17,26 17,26 42,20 41,19 23,5 32,13 124,1 124,1 z"
           id="path159"
           sodipodi:nodetypes="cccccccccccccccccccccccccccccccccccccccccccccccccccccccccccccccccccccccccccccccccccccccccccccccccccccccccccccccccc" />
        <path
           d="m 6030,2262 -55,-18 -30,-19 -30,-18 -67,-66 -68,-65 v 87 87 h -132 -131 l 6,-392 7,-391 v -214 -213 h 139 139 l 4,383 3,384 44,56 43,57 40,36 41,36 45,20 45,20 40,-5 40,-6 26,-19 26,-19 15,-29 15,-29 3,-442 3,-443 h 145 145 l -3,483 -3,482 -23,57 -23,57 -45,50 -45,50 -57,27 -57,27 -95,4 -95,3 z"
           id="path161" />
        <path
           d="m 9926,2265 -58,-15 -70,-36 -69,-37 -58,-63 -57,-63 -28,-57 -28,-57 -19,-55 -19,-55 -11,-90 -11,-91 6,-85 6,-86 9,-37 c 21,-65 0,0 21,-65 l 3,-21 3,-21 42,-70 42,-70 34,-33 35,-33 15,-12 15,-13 c 51,-31 0,0 51,-31 l 17,-4 18,-3 25,-10 25,-10 10,-2 10,-2 44,-14 44,-13 156,5 156,4 25,4 25,3 25,7 25,6 30,4 30,3 43,12 42,12 v 114 115 l -22,-4 c -23,-9 0,0 -23,-9 l -20,-3 -20,-3 -23,-5 -22,-5 -8,-5 -8,-5 -70,-7 -69,-8 -95,1 h -95 l -29,7 -30,7 -10,7 c -26,9 0,0 -26,9 l -15,2 c -27,21 0,0 -27,21 l -44,47 -44,46 c -11,35 0,0 -11,35 l -6,23 -6,24 -4,48 -5,47 h 396 396 l 1,18 v 17 l 1,110 v 110 l -12,60 -12,60 -28,62 -29,63 -53,56 -53,56 -41,24 -41,24 -59,21 -59,21 -110,4 -110,4 z m 262,-242 47,-29 28,-54 27,-55 7,-52 6,-53 h -252 -252 l 6,38 7,37 29,62 30,63 34,26 34,26 43,14 43,14 58,-4 59,-4 z"
           id="path163"
           sodipodi:nodetypes="cccccccccccccccccccccccccccccccccccccccccccccccccccccccccccccccccccccccccccccccccccccccccccccccccccccccccccc" />
        <path
           d="m 3122,2250 -42,-19 -26,-28 -27,-28 -28,-45 -29,-45 v 83 82 h -110 -110 v -605 -605 h 131 131 l -3,399 -3,398 37,76 37,76 31,25 31,26 h 17 18 l 19,-21 19,-21 3,-479 3,-479 h 124 125 v 386 385 l 32,77 31,77 38,38 37,37 h 18 19 l 11,-8 11,-7 12,-23 13,-24 5,-469 6,-469 h 124 123 v 453 452 l -10,68 -10,69 -21,49 -21,49 -38,34 -39,35 -38,10 -38,11 h -46 -46 l -34,-11 -34,-12 -32,-23 -31,-24 -41,-61 -41,-61 v 18 19 l -19,42 -19,42 -27,23 -26,23 -32,12 -32,11 -55,1 -55,1 z"
           id="path165" />
        <path
           d="m 11610,1925 v -95 h -95 -95 v -110 -110 h 95 95 v -95 -95 h 115 115 v 95 95 h 100 100 v 110 110 h -100 -100 v 95 95 h -115 -115 z"
           id="path167" />
        <path
           d="m 10910,1915 v -95 h -95 -95 v -100 -100 h 95 95 v -95 -95 h 100 100 v 59 59 l 6,31 7,31 h 93 94 v 110 110 h -94 -94 l -8,90 -7,90 h -98 -99 z"
           id="path169" />
      </g>
      <g
         transform="matrix(0.1,0,0,-0.1,0,348)"
         fill="#045a9c"
         stroke="none"
         id="g183">
        <path
           d="m 11110.991,1911.2292 0.1,-88.693 L 11204,1820 h 96 v -100 -100 h -95 -95 v -22 l 0.13,-72.6956 L 12301,870 l 23.627,1722.8736 z M 11830,1915 v -95 h 200 v -200 h -200 v -190 h -210 v 190 h -190 v 200 h 190 v 190 h 210 z"
           id="path173"
           sodipodi:nodetypes="ccccccccccccccccccccccccccc"
           style="fill:#1a1a1a" />
        <path
           d="m 3005,1385 v -350 l 2,178 3,178 -3,172 -3,172 z"
           id="path175" />
        <path
           d="m 8894,1500 v -235 l 3,118 4,117 -4,118 -3,117 z"
           id="path179" />
      </g>
    </g>
    <text
       xml:space="preserve"
       style="font-style:normal;font-variant:normal;font-weight:bold;font-stretch:normal;font-size:50.8px;line-height:1.25;font-family:Arial;-inkscape-font-specification:'Arial Bold';fill:#000000;fill-opacity:1;stroke:none;stroke-width:0.264583"
       x="-61.218933"
       y="149.76186"
       id="text21761"><tspan
         sodipodi:role="line"
         id="tspan21759"
         style="font-style:normal;font-variant:normal;font-weight:bold;font-stretch:normal;font-size:50.8px;font-family:Arial;-inkscape-font-specification:'Arial Bold';stroke-width:0.264583"
         x="-61.218933"
         y="149.76186" /></text>
  </g>
</svg>
